<mxfile host="Electron" modified="2024-04-12T12:41:49.323Z" agent="Mozilla/5.0 (Windows NT 10.0; Win64; x64) AppleWebKit/537.36 (KHTML, like Gecko) draw.io/23.0.2 Chrome/120.0.6099.109 Electron/28.1.0 Safari/537.36" etag="BbCkS_WcbBvCPYa2M9in" version="23.0.2" type="device" pages="2">
  <diagram name="stateDiagram#1" id="piOosJePttCMSbfONAx7">
    <mxGraphModel dx="834" dy="1684" grid="1" gridSize="10" guides="1" tooltips="1" connect="1" arrows="1" fold="1" page="1" pageScale="1" pageWidth="850" pageHeight="1100" math="0" shadow="0">
      <root>
        <mxCell id="0" />
        <mxCell id="1" parent="0" />
        <mxCell id="Rju-3n1qhBMeMpd1IRmQ-2" style="edgeStyle=orthogonalEdgeStyle;rounded=0;orthogonalLoop=1;jettySize=auto;html=1;entryX=0.5;entryY=0;entryDx=0;entryDy=0;" parent="1" source="Rju-3n1qhBMeMpd1IRmQ-1" target="Rju-3n1qhBMeMpd1IRmQ-3" edge="1">
          <mxGeometry relative="1" as="geometry">
            <mxPoint x="530" y="230" as="targetPoint" />
          </mxGeometry>
        </mxCell>
        <mxCell id="Rju-3n1qhBMeMpd1IRmQ-1" value="" style="ellipse;fillColor=strokeColor;html=1;" parent="1" vertex="1">
          <mxGeometry x="520" y="160" width="30" height="30" as="geometry" />
        </mxCell>
        <mxCell id="Rju-3n1qhBMeMpd1IRmQ-4" style="edgeStyle=orthogonalEdgeStyle;rounded=0;orthogonalLoop=1;jettySize=auto;html=1;entryX=0.5;entryY=0;entryDx=0;entryDy=0;" parent="1" source="Rju-3n1qhBMeMpd1IRmQ-3" target="Rju-3n1qhBMeMpd1IRmQ-5" edge="1">
          <mxGeometry relative="1" as="geometry">
            <mxPoint x="320" y="340" as="targetPoint" />
          </mxGeometry>
        </mxCell>
        <mxCell id="Rju-3n1qhBMeMpd1IRmQ-3" value="Idle" style="rounded=1;whiteSpace=wrap;html=1;" parent="1" vertex="1">
          <mxGeometry x="495" y="240" width="80" height="40" as="geometry" />
        </mxCell>
        <mxCell id="Rju-3n1qhBMeMpd1IRmQ-31" style="edgeStyle=orthogonalEdgeStyle;rounded=0;orthogonalLoop=1;jettySize=auto;html=1;entryX=0.5;entryY=0;entryDx=0;entryDy=0;" parent="1" source="Rju-3n1qhBMeMpd1IRmQ-5" target="Rju-3n1qhBMeMpd1IRmQ-6" edge="1">
          <mxGeometry relative="1" as="geometry" />
        </mxCell>
        <mxCell id="Rju-3n1qhBMeMpd1IRmQ-5" value="Session/&lt;br&gt;treatment" style="rounded=1;whiteSpace=wrap;html=1;" parent="1" vertex="1">
          <mxGeometry x="280" y="360" width="80" height="40" as="geometry" />
        </mxCell>
        <mxCell id="Rju-3n1qhBMeMpd1IRmQ-9" style="edgeStyle=orthogonalEdgeStyle;rounded=0;orthogonalLoop=1;jettySize=auto;html=1;entryX=0.5;entryY=0;entryDx=0;entryDy=0;" parent="1" source="Rju-3n1qhBMeMpd1IRmQ-6" target="Rju-3n1qhBMeMpd1IRmQ-7" edge="1">
          <mxGeometry relative="1" as="geometry" />
        </mxCell>
        <mxCell id="Rju-3n1qhBMeMpd1IRmQ-6" value="Pause" style="rounded=1;whiteSpace=wrap;html=1;" parent="1" vertex="1">
          <mxGeometry x="280" y="480" width="80" height="40" as="geometry" />
        </mxCell>
        <mxCell id="Rju-3n1qhBMeMpd1IRmQ-10" style="edgeStyle=orthogonalEdgeStyle;rounded=0;orthogonalLoop=1;jettySize=auto;html=1;entryX=0;entryY=0.5;entryDx=0;entryDy=0;" parent="1" source="Rju-3n1qhBMeMpd1IRmQ-7" target="Rju-3n1qhBMeMpd1IRmQ-6" edge="1">
          <mxGeometry relative="1" as="geometry">
            <Array as="points">
              <mxPoint x="200" y="580" />
              <mxPoint x="200" y="500" />
            </Array>
          </mxGeometry>
        </mxCell>
        <mxCell id="Rju-3n1qhBMeMpd1IRmQ-32" style="edgeStyle=orthogonalEdgeStyle;rounded=0;orthogonalLoop=1;jettySize=auto;html=1;entryX=0.5;entryY=0;entryDx=0;entryDy=0;" parent="1" source="Rju-3n1qhBMeMpd1IRmQ-7" target="Rju-3n1qhBMeMpd1IRmQ-22" edge="1">
          <mxGeometry relative="1" as="geometry" />
        </mxCell>
        <mxCell id="Rju-3n1qhBMeMpd1IRmQ-7" value="Resume" style="rounded=1;whiteSpace=wrap;html=1;" parent="1" vertex="1">
          <mxGeometry x="280" y="560" width="80" height="40" as="geometry" />
        </mxCell>
        <mxCell id="Rju-3n1qhBMeMpd1IRmQ-11" value="&lt;font style=&quot;font-size: 9px;&quot;&gt;pause treatment&lt;/font&gt;" style="text;html=1;align=center;verticalAlign=middle;resizable=0;points=[];autosize=1;strokeColor=none;fillColor=none;" parent="1" vertex="1">
          <mxGeometry x="190" y="550" width="90" height="30" as="geometry" />
        </mxCell>
        <mxCell id="Rju-3n1qhBMeMpd1IRmQ-26" style="edgeStyle=orthogonalEdgeStyle;rounded=0;orthogonalLoop=1;jettySize=auto;html=1;entryX=0;entryY=0.5;entryDx=0;entryDy=0;" parent="1" source="Rju-3n1qhBMeMpd1IRmQ-22" target="Rju-3n1qhBMeMpd1IRmQ-5" edge="1">
          <mxGeometry relative="1" as="geometry">
            <mxPoint x="170" y="790" as="targetPoint" />
            <Array as="points">
              <mxPoint x="160" y="720" />
              <mxPoint x="160" y="380" />
            </Array>
          </mxGeometry>
        </mxCell>
        <mxCell id="Rju-3n1qhBMeMpd1IRmQ-27" style="edgeStyle=orthogonalEdgeStyle;rounded=0;orthogonalLoop=1;jettySize=auto;html=1;entryX=0.5;entryY=0;entryDx=0;entryDy=0;" parent="1" source="Rju-3n1qhBMeMpd1IRmQ-22" target="Rju-3n1qhBMeMpd1IRmQ-24" edge="1">
          <mxGeometry relative="1" as="geometry" />
        </mxCell>
        <mxCell id="Rju-3n1qhBMeMpd1IRmQ-22" value="Check Contact" style="rhombus;whiteSpace=wrap;html=1;" parent="1" vertex="1">
          <mxGeometry x="280" y="680" width="80" height="80" as="geometry" />
        </mxCell>
        <mxCell id="Rju-3n1qhBMeMpd1IRmQ-29" style="edgeStyle=orthogonalEdgeStyle;rounded=0;orthogonalLoop=1;jettySize=auto;html=1;entryX=1;entryY=0.5;entryDx=0;entryDy=0;" parent="1" source="Rju-3n1qhBMeMpd1IRmQ-24" target="Rju-3n1qhBMeMpd1IRmQ-3" edge="1">
          <mxGeometry relative="1" as="geometry">
            <mxPoint x="585" y="410" as="targetPoint" />
            <Array as="points">
              <mxPoint x="650" y="810" />
              <mxPoint x="650" y="260" />
            </Array>
          </mxGeometry>
        </mxCell>
        <mxCell id="Rju-3n1qhBMeMpd1IRmQ-24" value="Contact Lost" style="rounded=1;whiteSpace=wrap;html=1;" parent="1" vertex="1">
          <mxGeometry x="450" y="790" width="80" height="40" as="geometry" />
        </mxCell>
        <mxCell id="Rju-3n1qhBMeMpd1IRmQ-28" value="no contact" style="text;html=1;align=center;verticalAlign=middle;resizable=0;points=[];autosize=1;strokeColor=none;fillColor=none;" parent="1" vertex="1">
          <mxGeometry x="390" y="718" width="80" height="30" as="geometry" />
        </mxCell>
        <mxCell id="Rju-3n1qhBMeMpd1IRmQ-33" value="&lt;font style=&quot;font-size: 14px;&quot;&gt;&lt;b&gt;State Diagram&lt;/b&gt;&lt;/font&gt;" style="text;html=1;align=center;verticalAlign=middle;resizable=0;points=[];autosize=1;strokeColor=none;fillColor=none;" parent="1" vertex="1">
          <mxGeometry x="230" y="140" width="120" height="30" as="geometry" />
        </mxCell>
        <mxCell id="aImY5i4fq5W6arnBGKCQ-1" value="start treatment" style="text;html=1;align=center;verticalAlign=middle;resizable=0;points=[];autosize=1;strokeColor=none;fillColor=none;" vertex="1" parent="1">
          <mxGeometry x="350" y="228" width="100" height="30" as="geometry" />
        </mxCell>
        <mxCell id="aImY5i4fq5W6arnBGKCQ-2" value="stop treatment" style="text;html=1;align=center;verticalAlign=middle;resizable=0;points=[];autosize=1;strokeColor=none;fillColor=none;" vertex="1" parent="1">
          <mxGeometry x="540" y="818" width="100" height="30" as="geometry" />
        </mxCell>
        <mxCell id="aImY5i4fq5W6arnBGKCQ-3" value="contact exists, resume treatment" style="text;html=1;align=center;verticalAlign=middle;resizable=0;points=[];autosize=1;strokeColor=none;fillColor=none;" vertex="1" parent="1">
          <mxGeometry x="70" y="730" width="200" height="30" as="geometry" />
        </mxCell>
      </root>
    </mxGraphModel>
  </diagram>
  <diagram id="yeStwljQqQfFgqPJsR40" name="baselineState">
    <mxGraphModel dx="834" dy="1684" grid="1" gridSize="10" guides="1" tooltips="1" connect="1" arrows="1" fold="1" page="1" pageScale="1" pageWidth="850" pageHeight="1100" math="0" shadow="0">
      <root>
        <mxCell id="0" />
        <mxCell id="1" parent="0" />
        <mxCell id="MpktSm7qGQqvrv6JBR7G-1" style="edgeStyle=orthogonalEdgeStyle;rounded=0;orthogonalLoop=1;jettySize=auto;html=1;entryX=0.5;entryY=0;entryDx=0;entryDy=0;" edge="1" parent="1" source="MpktSm7qGQqvrv6JBR7G-2" target="MpktSm7qGQqvrv6JBR7G-4">
          <mxGeometry relative="1" as="geometry">
            <mxPoint x="530" y="230" as="targetPoint" />
          </mxGeometry>
        </mxCell>
        <mxCell id="MpktSm7qGQqvrv6JBR7G-2" value="" style="ellipse;fillColor=strokeColor;html=1;" vertex="1" parent="1">
          <mxGeometry x="520" y="160" width="30" height="30" as="geometry" />
        </mxCell>
        <mxCell id="MpktSm7qGQqvrv6JBR7G-3" style="edgeStyle=orthogonalEdgeStyle;rounded=0;orthogonalLoop=1;jettySize=auto;html=1;entryX=0.5;entryY=0;entryDx=0;entryDy=0;" edge="1" parent="1" source="MpktSm7qGQqvrv6JBR7G-4" target="MpktSm7qGQqvrv6JBR7G-6">
          <mxGeometry relative="1" as="geometry">
            <mxPoint x="320" y="340" as="targetPoint" />
          </mxGeometry>
        </mxCell>
        <mxCell id="MpktSm7qGQqvrv6JBR7G-4" value="Idle" style="rounded=1;whiteSpace=wrap;html=1;" vertex="1" parent="1">
          <mxGeometry x="495" y="240" width="80" height="40" as="geometry" />
        </mxCell>
        <mxCell id="MpktSm7qGQqvrv6JBR7G-5" style="edgeStyle=orthogonalEdgeStyle;rounded=0;orthogonalLoop=1;jettySize=auto;html=1;entryX=0.5;entryY=0;entryDx=0;entryDy=0;" edge="1" parent="1" source="MpktSm7qGQqvrv6JBR7G-6" target="MpktSm7qGQqvrv6JBR7G-8">
          <mxGeometry relative="1" as="geometry" />
        </mxCell>
        <mxCell id="MpktSm7qGQqvrv6JBR7G-6" value="Session/&lt;br&gt;treatment" style="rounded=1;whiteSpace=wrap;html=1;" vertex="1" parent="1">
          <mxGeometry x="280" y="360" width="80" height="40" as="geometry" />
        </mxCell>
        <mxCell id="MpktSm7qGQqvrv6JBR7G-7" style="edgeStyle=orthogonalEdgeStyle;rounded=0;orthogonalLoop=1;jettySize=auto;html=1;entryX=0.5;entryY=0;entryDx=0;entryDy=0;" edge="1" parent="1" source="MpktSm7qGQqvrv6JBR7G-8" target="MpktSm7qGQqvrv6JBR7G-11">
          <mxGeometry relative="1" as="geometry" />
        </mxCell>
        <mxCell id="MpktSm7qGQqvrv6JBR7G-8" value="Pause" style="rounded=1;whiteSpace=wrap;html=1;" vertex="1" parent="1">
          <mxGeometry x="280" y="480" width="80" height="40" as="geometry" />
        </mxCell>
        <mxCell id="MpktSm7qGQqvrv6JBR7G-9" style="edgeStyle=orthogonalEdgeStyle;rounded=0;orthogonalLoop=1;jettySize=auto;html=1;entryX=0;entryY=0.5;entryDx=0;entryDy=0;" edge="1" parent="1" source="MpktSm7qGQqvrv6JBR7G-11" target="MpktSm7qGQqvrv6JBR7G-8">
          <mxGeometry relative="1" as="geometry">
            <Array as="points">
              <mxPoint x="200" y="580" />
              <mxPoint x="200" y="500" />
            </Array>
          </mxGeometry>
        </mxCell>
        <mxCell id="MpktSm7qGQqvrv6JBR7G-10" style="edgeStyle=orthogonalEdgeStyle;rounded=0;orthogonalLoop=1;jettySize=auto;html=1;entryX=0.5;entryY=0;entryDx=0;entryDy=0;" edge="1" parent="1" source="MpktSm7qGQqvrv6JBR7G-11" target="MpktSm7qGQqvrv6JBR7G-15">
          <mxGeometry relative="1" as="geometry" />
        </mxCell>
        <mxCell id="MpktSm7qGQqvrv6JBR7G-11" value="Resume" style="rounded=1;whiteSpace=wrap;html=1;" vertex="1" parent="1">
          <mxGeometry x="280" y="560" width="80" height="40" as="geometry" />
        </mxCell>
        <mxCell id="MpktSm7qGQqvrv6JBR7G-12" value="pause again" style="text;html=1;align=center;verticalAlign=middle;resizable=0;points=[];autosize=1;strokeColor=none;fillColor=none;" vertex="1" parent="1">
          <mxGeometry x="190" y="550" width="90" height="30" as="geometry" />
        </mxCell>
        <mxCell id="MpktSm7qGQqvrv6JBR7G-13" style="edgeStyle=orthogonalEdgeStyle;rounded=0;orthogonalLoop=1;jettySize=auto;html=1;entryX=0;entryY=0.5;entryDx=0;entryDy=0;" edge="1" parent="1" source="MpktSm7qGQqvrv6JBR7G-15" target="MpktSm7qGQqvrv6JBR7G-6">
          <mxGeometry relative="1" as="geometry">
            <mxPoint x="170" y="790" as="targetPoint" />
            <Array as="points">
              <mxPoint x="160" y="720" />
              <mxPoint x="160" y="380" />
            </Array>
          </mxGeometry>
        </mxCell>
        <mxCell id="MpktSm7qGQqvrv6JBR7G-14" style="edgeStyle=orthogonalEdgeStyle;rounded=0;orthogonalLoop=1;jettySize=auto;html=1;entryX=0.5;entryY=0;entryDx=0;entryDy=0;" edge="1" parent="1" source="MpktSm7qGQqvrv6JBR7G-15" target="MpktSm7qGQqvrv6JBR7G-17">
          <mxGeometry relative="1" as="geometry" />
        </mxCell>
        <mxCell id="MpktSm7qGQqvrv6JBR7G-15" value="Check Contact" style="rhombus;whiteSpace=wrap;html=1;" vertex="1" parent="1">
          <mxGeometry x="280" y="680" width="80" height="80" as="geometry" />
        </mxCell>
        <mxCell id="MpktSm7qGQqvrv6JBR7G-16" style="edgeStyle=orthogonalEdgeStyle;rounded=0;orthogonalLoop=1;jettySize=auto;html=1;entryX=1;entryY=0.5;entryDx=0;entryDy=0;" edge="1" parent="1" source="MpktSm7qGQqvrv6JBR7G-17" target="MpktSm7qGQqvrv6JBR7G-4">
          <mxGeometry relative="1" as="geometry">
            <mxPoint x="585" y="410" as="targetPoint" />
            <Array as="points">
              <mxPoint x="650" y="810" />
              <mxPoint x="650" y="260" />
            </Array>
          </mxGeometry>
        </mxCell>
        <mxCell id="MpktSm7qGQqvrv6JBR7G-17" value="Contact Lost" style="rounded=1;whiteSpace=wrap;html=1;" vertex="1" parent="1">
          <mxGeometry x="450" y="790" width="80" height="40" as="geometry" />
        </mxCell>
        <mxCell id="MpktSm7qGQqvrv6JBR7G-18" value="no contact" style="text;html=1;align=center;verticalAlign=middle;resizable=0;points=[];autosize=1;strokeColor=none;fillColor=none;" vertex="1" parent="1">
          <mxGeometry x="390" y="718" width="80" height="30" as="geometry" />
        </mxCell>
        <mxCell id="MpktSm7qGQqvrv6JBR7G-19" value="State Diagram" style="text;html=1;align=center;verticalAlign=middle;resizable=0;points=[];autosize=1;strokeColor=none;fillColor=none;" vertex="1" parent="1">
          <mxGeometry x="270" y="140" width="100" height="30" as="geometry" />
        </mxCell>
      </root>
    </mxGraphModel>
  </diagram>
</mxfile>
